<svg width="59" height="60" viewBox="0 0 59 60" fill="none" xmlns="http://www.w3.org/2000/svg">
<path d="M29.2801 0.902222C13.2107 0.902222 0.168945 13.944 0.168945 30.0133C0.168945 46.0827 13.2107 59.1245 29.2801 59.1245C45.3494 59.1245 58.3912 46.0827 58.3912 30.0133C58.3912 13.944 45.3494 0.902222 29.2801 0.902222ZM29.2801 9.63556C34.1125 9.63556 38.0134 13.5364 38.0134 18.3689C38.0134 23.2013 34.1125 27.1022 29.2801 27.1022C24.4476 27.1022 20.5467 23.2013 20.5467 18.3689C20.5467 13.5364 24.4476 9.63556 29.2801 9.63556ZM29.2801 50.9733C22.0023 50.9733 15.5687 47.2471 11.8134 41.5996C11.9007 35.8064 23.4578 32.6333 29.2801 32.6333C35.0732 32.6333 46.6594 35.8064 46.7467 41.5996C42.9914 47.2471 36.5578 50.9733 29.2801 50.9733Z" fill="black"/>
</svg>
