<svg width="44" height="58" viewBox="0 0 44 58" fill="none" xmlns="http://www.w3.org/2000/svg">
<path d="M38.5282 19.2133H35.799V13.7238C35.799 6.14827 29.6857 0 22.1532 0C14.6207 0 8.50732 6.14827 8.50732 13.7238V19.2133H5.77816C2.77607 19.2133 0.319824 21.6836 0.319824 24.7029V52.1505C0.319824 55.1697 2.77607 57.64 5.77816 57.64H38.5282C41.5302 57.64 43.9865 55.1697 43.9865 52.1505V24.7029C43.9865 21.6836 41.5302 19.2133 38.5282 19.2133ZM22.1532 43.9162C19.1511 43.9162 16.6948 41.4459 16.6948 38.4267C16.6948 35.4074 19.1511 32.9371 22.1532 32.9371C25.1552 32.9371 27.6115 35.4074 27.6115 38.4267C27.6115 41.4459 25.1552 43.9162 22.1532 43.9162ZM30.6136 19.2133H13.6927V13.7238C13.6927 9.03027 17.4863 5.21505 22.1532 5.21505C26.82 5.21505 30.6136 9.03027 30.6136 13.7238V19.2133Z" fill="black"/>
</svg>
